<?xml version="1.0" encoding="UTF-8"?>
<!DOCTYPE svg PUBLIC "-//W3C//DTD SVG 1.1//EN" "http://www.w3.org/Graphics/SVG/1.1/DTD/svg11.dtd">
<!-- Creator: CorelDRAW -->
<svg xmlns="http://www.w3.org/2000/svg" xml:space="preserve" width="3048mm" height="3657.6mm" version="1.1" style="shape-rendering:geometricPrecision; text-rendering:geometricPrecision; image-rendering:optimizeQuality; fill-rule:evenodd; clip-rule:evenodd"
viewBox="0 0 304800 365760"
 xmlns:xlink="http://www.w3.org/1999/xlink"
 xmlns:xodm="http://www.corel.com/coreldraw/odm/2003">
 <defs>
  <style type="text/css">
   <![CDATA[
    .str6 {stroke:#FEFEFE;stroke-width:2500;stroke-miterlimit:22.9256}
    .str4 {stroke:#F7CA0E;stroke-width:2500;stroke-miterlimit:22.9256}
    .str3 {stroke:#FEFEFE;stroke-width:20;stroke-miterlimit:22.9256}
    .str1 {stroke:#CACBCB;stroke-width:20;stroke-miterlimit:22.9256}
    .str0 {stroke:#5B5B5B;stroke-width:20;stroke-miterlimit:22.9256}
    .str5 {stroke:#2B2A29;stroke-width:20;stroke-miterlimit:22.9256}
    .str2 {stroke:#FEFEFE;stroke-width:10;stroke-miterlimit:22.9256}
    .fil1 {fill:none}
    .fil0 {fill:#5B5B5B}
   ]]>
  </style>
 </defs>
 <g id="Layer_x0020_1">
  <metadata id="CorelCorpID_0Corel-Layer"/>
  <rect class="fil0 str0" width="304800" height="365760"/>
  <g id="_1849667936">
   <g>
    <rect class="fil1 str1" y="243839.99" width="60960" height="60960"/>
    <rect class="fil1 str1" x="60960" y="243839.99" width="60960" height="60960"/>
    <rect class="fil1 str1" x="121920" y="243839.99" width="60960" height="60960"/>
    <rect class="fil1 str1" x="243840" y="243839.99" width="60960" height="60960"/>
    <rect class="fil1 str1" x="182880" y="243839.99" width="60960" height="60960"/>
   </g>
   <g>
    <rect class="fil1 str1" y="60959.99" width="60960" height="60960"/>
    <rect class="fil1 str1" x="60960" y="60959.99" width="60960" height="60960"/>
    <rect class="fil1 str1" x="121920" y="60959.99" width="60960" height="60960"/>
    <rect class="fil1 str1" x="243840" y="60959.99" width="60960" height="60960"/>
    <rect class="fil1 str1" x="182880" y="60959.99" width="60960" height="60960"/>
   </g>
   <g>
    <rect class="fil1 str1" y="304799.99" width="60960" height="60960"/>
    <rect class="fil1 str1" x="60960" y="304799.99" width="60960" height="60960"/>
    <rect class="fil1 str1" x="121920" y="304799.99" width="60960" height="60960"/>
    <rect class="fil1 str1" x="243840" y="304799.99" width="60960" height="60960"/>
    <rect class="fil1 str1" x="182880" y="304799.99" width="60960" height="60960"/>
   </g>
   <g>
    <rect class="fil1 str1" y="121919.99" width="60960" height="60960"/>
    <rect class="fil1 str1" x="60960" y="121919.99" width="60960" height="60960"/>
    <rect class="fil1 str1" x="121920" y="121919.99" width="60960" height="60960"/>
    <rect class="fil1 str1" x="243840" y="121919.99" width="60960" height="60960"/>
    <rect class="fil1 str1" x="182880" y="121919.99" width="60960" height="60960"/>
   </g>
   <g>
    <rect class="fil1 str1" y="-0.01" width="60960" height="60960"/>
    <rect class="fil1 str1" x="60960" y="-0.01" width="60960" height="60960"/>
    <rect class="fil1 str1" x="121920" y="-0.01" width="60960" height="60960"/>
    <rect class="fil1 str1" x="243840" y="-0.01" width="60960" height="60960"/>
    <rect class="fil1 str1" x="182880" y="-0.01" width="60960" height="60960"/>
   </g>
   <g>
    <rect class="fil1 str1" y="182879.99" width="60960" height="60960"/>
    <rect class="fil1 str1" x="60960" y="182879.99" width="60960" height="60960"/>
    <rect class="fil1 str1" x="121920" y="182879.99" width="60960" height="60960"/>
    <rect class="fil1 str1" x="243840" y="182879.99" width="60960" height="60960"/>
    <rect class="fil1 str1" x="182880" y="182879.99" width="60960" height="60960"/>
   </g>
  </g>
  <rect class="fil1 str2" x="60960" y="60960" width="182880" height="243840" rx="50000" ry="50000"/>
  <rect class="fil0 str3" x="0.01" width="10000" height="10000"/>
  <rect class="fil0 str3" x="294800.01" width="10000" height="10000"/>
  <rect class="fil0 str3" x="0.01" y="355760" width="10000" height="10000"/>
  <rect class="fil0 str3" x="294800.01" y="355760" width="10000" height="10000"/>
  <rect class="fil1 str4" x="111920" y="111920" width="80960" height="141920" rx="22100" ry="22100"/>
  <rect class="fil1 str4" x="10000" y="10000" width="284800" height="345760" rx="100960" ry="100960"/>
  <g id="_1849664624">
   <rect class="fil1 str5" x="55960" y="116920" width="10000" height="10000"/>
   <rect class="fil1 str5" x="55960" y="177880" width="10000" height="10000"/>
   <rect class="fil1 str5" x="55960" y="238840" width="10000" height="10000"/>
   <rect class="fil1 str5" x="238840" y="116920" width="10000" height="10000"/>
   <rect class="fil1 str5" x="238840" y="177880" width="10000" height="10000"/>
   <rect class="fil1 str5" x="238840" y="238840" width="10000" height="10000"/>
   <rect class="fil1 str5" x="116920" y="55960" width="10000" height="10000"/>
   <rect class="fil1 str5" x="177880" y="55960" width="10000" height="10000"/>
   <rect class="fil1 str5" x="116920" y="299800" width="10000" height="10000"/>
   <rect class="fil1 str5" x="177880" y="299800" width="10000" height="10000"/>
   <rect class="fil1 str5" x="31133.9" y="38360.67" width="10000" height="10000"/>
   <rect class="fil1 str5" x="263666.12" y="38360.67" width="10000" height="10000"/>
   <rect class="fil1 str5" x="31133.9" y="317399.33" width="10000" height="10000"/>
   <rect class="fil1 str5" x="263666.12" y="317399.33" width="10000" height="10000"/>
   <rect class="fil1 str5" x="289800.01" y="177880" width="10000" height="10000"/>
   <rect class="fil1 str5" x="147400.01" y="5000" width="10000" height="10000"/>
   <rect class="fil1 str5" x="147400.01" y="350760" width="10000" height="10000"/>
   <rect class="fil1 str5" x="5000.01" y="177880" width="10000" height="10000"/>
  </g>
  <line class="fil1 str6" x1="60960" y1="137160" x2="60960" y2= "167640" />
  <line class="fil1 str6" x1="60960" y1="198120" x2="60960" y2= "228600" />
  <line class="fil1 str6" x1="243840" y1="137160" x2="243840" y2= "167640" />
  <line class="fil1 str6" x1="243840" y1="198120" x2="243840" y2= "228600" />
  <line class="fil1 str6" x1="137160" y1="60960" x2="167640" y2= "60960" />
  <line class="fil1 str6" x1="137160" y1="304800" x2="167640" y2= "304800" />
  <path class="fil1 str6" d="M62540.47 98505.16c2628.52,-11518.64 9990.91,-21518.16 22087.17,-29998.56"/>
  <path class="fil1 str6" d="M220172.36 68506.6c12096.26,8480.4 19458.65,18479.92 22087.17,29998.56"/>
  <path class="fil1 str6" d="M62540.47 267254.84c2628.52,11518.64 9990.91,21518.16 22087.17,29998.56"/>
  <path class="fil1 str6" d="M220172.36 297253.4c12096.26,-8480.4 19458.65,-18479.92 22087.17,-29998.56"/>
 </g>
</svg>
